<svg width="26" height="26" viewBox="0 0 26 26" fill="none" xmlns="http://www.w3.org/2000/svg">
<path id="Vector" d="M22.4 0.425293H2.8C1.26 0.425293 0 1.68515 0 3.22498V22.8228C0 24.364 1.26 25.6225 2.8 25.6225H12.6V15.8236H9.8V12.359H12.6V9.48929C12.6 6.46003 14.2968 4.33226 17.8724 4.33226L20.3966 4.33506V7.98166H18.7208C17.3292 7.98166 16.8 9.02594 16.8 9.99464V12.3604H20.3952L19.6 15.8236H16.8V25.6225H22.4C23.94 25.6225 25.2 24.364 25.2 22.8228V3.22498C25.2 1.68515 23.94 0.425293 22.4 0.425293Z" fill="#0A4020"/>
</svg>
