<svg width="18" height="18" viewBox="0 0 18 18" fill="none" xmlns="http://www.w3.org/2000/svg">
<g id="Group 47620">
<path id="Vector" d="M13.0013 0.998535H5.00044C2.79106 0.998535 1 2.7894 1 4.99854V12.9985C1 15.2077 2.79106 16.9985 5.00044 16.9985H13.0013C15.2107 16.9985 17.0018 15.2077 17.0018 12.9985V4.99854C17.0018 2.7894 15.2107 0.998535 13.0013 0.998535Z" stroke="#29594B" stroke-width="2" stroke-linecap="round" stroke-linejoin="round"/>
<path id="Vector_2" d="M12.202 8.49459C12.3008 9.16046 12.187 9.84051 11.877 10.438C11.567 11.0355 11.0764 11.5201 10.4751 11.8227C9.87386 12.1253 9.19246 12.2307 8.52785 12.1237C7.86325 12.0168 7.24929 11.703 6.7733 11.227C6.29731 10.751 5.98353 10.1371 5.87659 9.47247C5.76964 8.80787 5.87498 8.12646 6.17763 7.52518C6.48027 6.9239 6.9648 6.43335 7.56231 6.12332C8.15981 5.81329 8.83986 5.69955 9.50573 5.79829C10.1849 5.89901 10.8138 6.21551 11.2993 6.70104C11.7848 7.18657 12.1013 7.81538 12.202 8.49459Z" stroke="#29594B" stroke-width="2" stroke-linecap="round" stroke-linejoin="round"/>
<path id="Vector_3" d="M13.4023 4.59766H13.4123" stroke="#29594B" stroke-width="2" stroke-linecap="round" stroke-linejoin="round"/>
</g>
</svg>
