<svg width="60" height="60" viewBox="0 0 60 60" fill="none" xmlns="http://www.w3.org/2000/svg">
<g id="Icon">
<circle id="Ellipse 788" cx="30" cy="30" r="30" fill="#FFE86B"/>
<g id="Group 47794">
<path id="Subtract" d="M24.5869 19.4583H35.2536V17.4583H24.5869V19.4583ZM42.2536 26.4583V30.4583H44.2536V26.4583H42.2536ZM35.2536 37.4583H24.5869V39.4583H35.2536V37.4583ZM17.5869 30.4583V26.4583H15.5869V30.4583H17.5869ZM24.5869 37.4583C22.673 37.4583 21.3382 37.4562 20.3311 37.3208C19.3527 37.1892 18.8346 36.9487 18.4656 36.5796L17.0514 37.9938C17.8539 38.7964 18.8644 39.1416 20.0646 39.3029C21.236 39.4604 22.7296 39.4583 24.5869 39.4583V37.4583ZM15.5869 30.4583C15.5869 32.3157 15.5848 33.8093 15.7423 34.9806C15.9036 36.1808 16.2488 37.1913 17.0514 37.9938L18.4656 36.5796C18.0966 36.2106 17.856 35.6925 17.7244 34.7142C17.589 33.707 17.5869 32.3722 17.5869 30.4583H15.5869ZM42.2536 30.4583C42.2536 32.3722 42.2515 33.707 42.1161 34.7142C41.9845 35.6925 41.7439 36.2106 41.3749 36.5796L42.7891 37.9938C43.5917 37.1913 43.9369 36.1808 44.0982 34.9806C44.2557 33.8093 44.2536 32.3157 44.2536 30.4583H42.2536ZM35.2536 39.4583C37.1109 39.4583 38.6045 39.4604 39.7759 39.3029C40.9761 39.1416 41.9866 38.7964 42.7891 37.9938L41.3749 36.5796C41.0059 36.9487 40.4878 37.1892 39.5094 37.3208C38.5023 37.4562 37.1675 37.4583 35.2536 37.4583V39.4583ZM35.2536 19.4583C37.1675 19.4583 38.5023 19.4604 39.5094 19.5958C40.4878 19.7274 41.0059 19.968 41.3749 20.337L42.7891 18.9228C41.9866 18.1202 40.9761 17.775 39.7759 17.6137C38.6045 17.4562 37.1109 17.4583 35.2536 17.4583V19.4583ZM44.2536 26.4583C44.2536 24.601 44.2557 23.1074 44.0982 21.936C43.9369 20.7358 43.5917 19.7253 42.7891 18.9228L41.3749 20.337C41.7439 20.706 41.9845 21.2241 42.1161 22.2025C42.2515 23.2096 42.2536 24.5444 42.2536 26.4583H44.2536ZM24.5869 17.4583C22.7296 17.4583 21.236 17.4562 20.0646 17.6137C18.8644 17.775 17.8539 18.1202 17.0514 18.9228L18.4656 20.337C18.8346 19.968 19.3527 19.7274 20.3311 19.5958C21.3382 19.4604 22.673 19.4583 24.5869 19.4583V17.4583ZM17.5869 26.4583C17.5869 24.5444 17.589 23.2096 17.7244 22.2025C17.856 21.2241 18.0966 20.706 18.4656 20.337L17.0514 18.9228C16.2488 19.7253 15.9036 20.7358 15.7423 21.936C15.5848 23.1074 15.5869 24.601 15.5869 26.4583H17.5869Z" fill="#0A4020"/>
<path id="Vector 1194" d="M43.3387 25.211H16.5V27.2755H43.3387V25.211Z" fill="#0A4020"/>
<circle id="Ellipse 771" cx="23.7266" cy="32.9529" r="1.54839" fill="#0A4020"/>
</g>
</g>
</svg>
