<svg width="27" height="27" viewBox="0 0 27 27" fill="none" xmlns="http://www.w3.org/2000/svg">
<g id="linkedin">
<path id="Vector" d="M17.9326 8.68311C19.6565 8.68311 21.3098 9.36793 22.5288 10.5869C23.7478 11.8059 24.4326 13.4592 24.4326 15.1831V22.7664H20.0993V15.1831C20.0993 14.6085 19.871 14.0574 19.4647 13.651C19.0584 13.2447 18.5073 13.0164 17.9326 13.0164C17.358 13.0164 16.8069 13.2447 16.4006 13.651C15.9942 14.0574 15.766 14.6085 15.766 15.1831V22.7664H11.4326V15.1831C11.4326 13.4592 12.1174 11.8059 13.3364 10.5869C14.5554 9.36793 16.2087 8.68311 17.9326 8.68311Z" stroke="#0A4020" stroke-width="2" stroke-linecap="round" stroke-linejoin="round"/>
<path id="Vector_2" d="M7.09993 9.76611H2.7666V22.7661H7.09993V9.76611Z" stroke="#0A4020" stroke-width="2" stroke-linecap="round" stroke-linejoin="round"/>
<path id="Vector_3" d="M4.93327 6.51644C6.12988 6.51644 7.09993 5.54639 7.09993 4.34977C7.09993 3.15316 6.12988 2.18311 4.93327 2.18311C3.73665 2.18311 2.7666 3.15316 2.7666 4.34977C2.7666 5.54639 3.73665 6.51644 4.93327 6.51644Z" stroke="#0A4020" stroke-width="2" stroke-linecap="round" stroke-linejoin="round"/>
</g>
</svg>
