<svg width="19" height="20" viewBox="0 0 19 20" fill="none" xmlns="http://www.w3.org/2000/svg">
<path d="M15.4 9.09995H2.8C1.80589 9.09995 1 9.90583 1 10.8999V17.1999C1 18.1941 1.80589 18.9999 2.8 18.9999H15.4C16.3941 18.9999 17.2 18.1941 17.2 17.1999V10.8999C17.2 9.90583 16.3941 9.09995 15.4 9.09995Z" stroke="black" stroke-width="2" stroke-linecap="round" stroke-linejoin="round"/>
<path d="M4.59961 9.09997V5.49997C4.59961 4.3065 5.07372 3.1619 5.91763 2.31799C6.76154 1.47408 7.90614 0.999969 9.09961 0.999969C10.2931 0.999969 11.4377 1.47408 12.2816 2.31799C13.1255 3.1619 13.5996 4.3065 13.5996 5.49997V9.09997" stroke="black" stroke-width="2" stroke-linecap="round" stroke-linejoin="round"/>
</svg>
