<svg width="25" height="20" viewBox="0 0 25 20" fill="none" xmlns="http://www.w3.org/2000/svg">
<path id="Vector" d="M23.5996 1.03398C22.642 1.70938 21.5817 2.22596 20.4596 2.56381C19.8574 1.8714 19.0569 1.38063 18.1666 1.15789C17.2763 0.935152 16.3391 0.991181 15.4817 1.3184C14.6243 1.64562 13.8881 2.22825 13.3726 2.98748C12.8571 3.74671 12.5873 4.64592 12.5996 5.56348V6.56337C10.8422 6.60893 9.10088 6.21922 7.53062 5.42894C5.96035 4.63866 4.60993 3.47235 3.59961 2.03387C3.59961 2.03387 -0.400391 11.0329 8.59961 15.0324C6.54014 16.4302 4.08677 17.1311 1.59961 17.0322C10.5996 22.0317 21.5996 17.0322 21.5996 5.53348C21.5987 5.25497 21.5719 4.97714 21.5196 4.70358C22.5402 3.69718 23.2604 2.42654 23.5996 1.03398Z" stroke="#0A4020" stroke-width="2" stroke-linecap="round" stroke-linejoin="round"/>
</svg>
